<svg width="93" height="72" viewBox="0 0 93 72" fill="none" xmlns="http://www.w3.org/2000/svg">
<path d="M7.78809 5.24H12.2881V25.022H21.1981V29H7.78809V5.24ZM29.1915 21.296C29.1915 22.616 29.4555 23.672 29.9835 24.464C30.5115 25.244 31.3635 25.634 32.5395 25.634C33.7275 25.634 34.5855 25.244 35.1135 24.464C35.6415 23.672 35.9055 22.616 35.9055 21.296V14.222H40.4055V21.818C40.4055 23.342 40.0995 24.68 39.4875 25.832C38.8755 26.972 37.9815 27.86 36.8055 28.496C35.6415 29.12 34.2195 29.432 32.5395 29.432C30.8715 29.432 29.4495 29.12 28.2735 28.496C27.1095 27.86 26.2215 26.972 25.6095 25.832C24.9975 24.68 24.6915 23.342 24.6915 21.818V14.222H29.1915V21.296ZM48.728 29H44.138V4.232H48.728V29ZM56.9298 21.296C56.9298 22.616 57.1938 23.672 57.7218 24.464C58.2498 25.244 59.1018 25.634 60.2778 25.634C61.4658 25.634 62.3238 25.244 62.8518 24.464C63.3798 23.672 63.6438 22.616 63.6438 21.296V14.222H68.1438V21.818C68.1438 23.342 67.8378 24.68 67.2258 25.832C66.6138 26.972 65.7198 27.86 64.5438 28.496C63.3798 29.12 61.9578 29.432 60.2778 29.432C58.6098 29.432 57.1878 29.12 56.0118 28.496C54.8478 27.86 53.9598 26.972 53.3478 25.832C52.7358 24.68 52.4298 23.342 52.4298 21.818V14.222H56.9298V21.296Z" fill="white"/>
<path d="M25.7376 55.848C25.7376 55.232 25.8536 54.688 26.0856 54.216C26.3176 53.736 26.6136 53.324 26.9736 52.98C27.3416 52.628 27.7216 52.332 28.1136 52.092C28.5136 51.852 28.8856 51.664 29.2296 51.528C29.5816 51.384 29.8536 51.284 30.0456 51.228C29.8776 51.132 29.6816 50.976 29.4576 50.76C29.2416 50.536 29.0296 50.268 28.8216 49.956C28.6216 49.636 28.4536 49.28 28.3176 48.888C28.1816 48.496 28.1136 48.084 28.1136 47.652C28.1136 46.98 28.2976 46.356 28.6656 45.78C29.0416 45.204 29.5856 44.744 30.2976 44.4C31.0096 44.048 31.8616 43.872 32.8536 43.872C33.8376 43.872 34.6576 44.04 35.3136 44.376C35.9776 44.712 36.4776 45.168 36.8136 45.744C37.1576 46.32 37.3296 46.972 37.3296 47.7C37.3296 48.268 37.2016 48.78 36.9456 49.236C36.6976 49.684 36.3856 50.08 36.0096 50.424C35.6336 50.76 35.2576 51.044 34.8816 51.276C34.5136 51.508 34.2016 51.684 33.9456 51.804L36.6456 54.708C36.8456 54.54 37.1216 54.252 37.4736 53.844C37.8336 53.436 38.2056 52.948 38.5896 52.38L40.5816 54.168C40.4616 54.36 40.2896 54.604 40.0656 54.9C39.8416 55.196 39.5976 55.492 39.3336 55.788C39.0776 56.084 38.8256 56.336 38.5776 56.544L41.8656 60H38.0856L36.3336 58.14C35.9256 58.492 35.4536 58.832 34.9176 59.16C34.3896 59.488 33.7896 59.76 33.1176 59.976C32.4456 60.184 31.6856 60.288 30.8376 60.288C29.9176 60.288 29.0696 60.116 28.2936 59.772C27.5256 59.428 26.9056 58.924 26.4336 58.26C25.9696 57.596 25.7376 56.792 25.7376 55.848ZM31.5216 53.028C31.4176 53.068 31.2656 53.136 31.0656 53.232C30.8736 53.32 30.6656 53.436 30.4416 53.58C30.2176 53.716 30.0056 53.884 29.8056 54.084C29.6056 54.276 29.4416 54.496 29.3136 54.744C29.1856 54.992 29.1216 55.272 29.1216 55.584C29.1216 56.016 29.2216 56.376 29.4216 56.664C29.6216 56.944 29.8896 57.152 30.2256 57.288C30.5696 57.424 30.9496 57.492 31.3656 57.492C31.7896 57.492 32.1976 57.42 32.5896 57.276C32.9816 57.132 33.3376 56.956 33.6576 56.748C33.9856 56.54 34.2456 56.34 34.4376 56.148L31.5216 53.028ZM32.8416 46.176C32.4576 46.176 32.1296 46.252 31.8576 46.404C31.5856 46.548 31.3816 46.736 31.2456 46.968C31.1096 47.2 31.0416 47.44 31.0416 47.688C31.0416 47.952 31.1056 48.224 31.2336 48.504C31.3616 48.784 31.5096 49.044 31.6776 49.284C31.8536 49.524 32.0136 49.724 32.1576 49.884C32.3016 50.036 32.3856 50.128 32.4096 50.16C32.5296 50.12 32.7096 50.04 32.9496 49.92C33.1896 49.792 33.4336 49.624 33.6816 49.416C33.9376 49.208 34.1536 48.96 34.3296 48.672C34.5056 48.384 34.5936 48.056 34.5936 47.688C34.5936 47.264 34.4336 46.908 34.1136 46.62C33.8016 46.324 33.3776 46.176 32.8416 46.176Z" fill="white"/>
<path d="M60.3509 55.986C61.5989 55.986 62.7089 55.812 63.6809 55.464C64.6529 55.104 65.3669 54.75 65.8229 54.402L67.7489 58.236C67.1969 58.716 66.2429 59.202 64.8869 59.694C63.5429 60.186 61.9349 60.432 60.0629 60.432C58.3109 60.432 56.6729 60.126 55.1489 59.514C53.6249 58.89 52.2869 58.026 51.1349 56.922C49.9829 55.806 49.0829 54.504 48.4349 53.016C47.7869 51.516 47.4629 49.896 47.4629 48.156C47.4629 46.416 47.7809 44.796 48.4169 43.296C49.0649 41.784 49.9649 40.47 51.1169 39.354C52.2689 38.238 53.6069 37.368 55.1309 36.744C56.6669 36.12 58.3109 35.808 60.0629 35.808C61.9349 35.808 63.5429 36.054 64.8869 36.546C66.2429 37.038 67.1969 37.524 67.7489 38.004L65.8229 41.838C65.3669 41.49 64.6529 41.142 63.6809 40.794C62.7089 40.434 61.5989 40.254 60.3509 40.254C59.0789 40.254 57.9449 40.458 56.9489 40.866C55.9649 41.274 55.1249 41.844 54.4289 42.576C53.7449 43.296 53.2229 44.13 52.8629 45.078C52.5029 46.026 52.3229 47.034 52.3229 48.102C52.3229 49.182 52.5029 50.202 52.8629 51.162C53.2229 52.11 53.7449 52.95 54.4289 53.682C55.1249 54.402 55.9649 54.966 56.9489 55.374C57.9449 55.782 59.0789 55.986 60.3509 55.986ZM78.4282 60.432C76.8562 60.432 75.4522 60.096 74.2162 59.424C72.9922 58.752 72.0322 57.834 71.3362 56.67C70.6402 55.494 70.2922 54.156 70.2922 52.656C70.2922 51.156 70.6402 49.818 71.3362 48.642C72.0322 47.454 72.9922 46.518 74.2162 45.834C75.4522 45.138 76.8562 44.79 78.4282 44.79C80.0122 44.79 81.4102 45.138 82.6222 45.834C83.8342 46.518 84.7822 47.454 85.4662 48.642C86.1502 49.818 86.4922 51.156 86.4922 52.656C86.4922 54.156 86.1502 55.494 85.4662 56.67C84.7822 57.834 83.8342 58.752 82.6222 59.424C81.4102 60.096 80.0122 60.432 78.4282 60.432ZM78.4282 56.634C79.1842 56.634 79.8382 56.466 80.3902 56.13C80.9542 55.782 81.3862 55.308 81.6862 54.708C81.9982 54.096 82.1542 53.406 82.1542 52.638C82.1542 51.87 81.9982 51.18 81.6862 50.568C81.3862 49.956 80.9542 49.476 80.3902 49.128C79.8382 48.768 79.1842 48.588 78.4282 48.588C77.6722 48.588 77.0122 48.768 76.4482 49.128C75.8962 49.476 75.4642 49.956 75.1522 50.568C74.8402 51.18 74.6842 51.87 74.6842 52.638C74.6842 53.406 74.8402 54.096 75.1522 54.708C75.4642 55.308 75.8962 55.782 76.4482 56.13C77.0122 56.466 77.6722 56.634 78.4282 56.634Z" fill="white"/>
</svg>
